<svg width="22" height="22" viewBox="0 0 24 24" fill="none" xmlns="http://www.w3.org/2000/svg">
<path d="M6.33777 12.7308L12.7026 6.36597C13.0091 6.05954 13.3729 5.81649 13.7734 5.65068C14.1738 5.48487 14.603 5.39956 15.0364 5.39962C15.4698 5.39967 15.899 5.48509 16.2993 5.651C16.6997 5.81691 17.0635 6.06006 17.37 6.36657C17.6764 6.67307 17.9194 7.03693 18.0853 7.43737C18.2511 7.83781 18.3364 8.26698 18.3363 8.70039C18.3363 9.1338 18.2508 9.56295 18.0849 9.96335C17.919 10.3637 17.6759 10.7275 17.3694 11.034L9.73257 18.6708C9.45107 18.9523 9.06927 19.1104 8.67117 19.1104C8.27307 19.1104 7.89127 18.9523 7.60977 18.6708C7.32827 18.3893 7.17012 18.0075 7.17012 17.6094C7.17012 17.2113 7.32827 16.8295 7.60977 16.548L14.3982 9.75957C14.5571 9.58896 14.6437 9.3633 14.6396 9.13014C14.6355 8.89698 14.541 8.67452 14.3761 8.50962C14.2112 8.34473 13.9888 8.25027 13.7556 8.24616C13.5224 8.24204 13.2968 8.32859 13.1262 8.48757L6.33777 15.276C5.71875 15.895 5.37099 16.7345 5.37099 17.61C5.37099 18.4854 5.71875 19.325 6.33777 19.944C6.95678 20.563 7.79635 20.9107 8.67177 20.9107C9.54719 20.9107 10.3868 20.563 11.0058 19.944L18.6414 12.306C19.5794 11.3458 20.1011 10.0546 20.0933 8.71227C20.0855 7.36998 19.5488 6.08488 18.5996 5.13572C17.6505 4.18656 16.3654 3.64987 15.0231 3.64205C13.6808 3.63424 12.3895 4.15593 11.4294 5.09397L5.06577 11.4576C4.90679 11.6282 4.82025 11.8538 4.82436 12.087C4.82847 12.3202 4.92293 12.5426 5.08782 12.7075C5.25272 12.8724 5.47518 12.9669 5.70834 12.971C5.9415 12.9751 6.16716 12.8885 6.33777 12.7296V12.7308Z" fill="#CB2028"/>
</svg>
