<svg width="180" height="180" viewBox="0 0 180 180" fill="none" xmlns="http://www.w3.org/2000/svg">
<circle cx="90" cy="90" r="90" fill="#CB5858"/>
<circle cx="90.5" cy="90.5" r="72.5" fill="white"/>
<mask id="mask0_151_10" style="mask-type:luminance" maskUnits="userSpaceOnUse" x="58" y="64" width="65" height="53">
<path d="M117.125 66.8333H84.5832C83.7986 66.8333 83.0461 67.145 82.4913 67.6998C81.9365 68.2546 81.6248 69.0071 81.6248 69.7917V102.333C81.6248 103.118 81.9365 103.87 82.4913 104.425C83.0461 104.98 83.7986 105.292 84.5832 105.292H117.125C117.909 105.292 118.662 104.98 119.217 104.425C119.771 103.87 120.083 103.118 120.083 102.333V69.7917C120.083 69.0071 119.771 68.2546 119.217 67.6998C118.662 67.145 117.909 66.8333 117.125 66.8333ZM60.9165 105.292H81.6248V84.5833H71.2707L60.9165 94.1417V105.292Z" fill="white" stroke="white" stroke-width="4" stroke-linejoin="round"/>
<path d="M81.6248 108.25C81.6248 109.819 81.0015 111.324 79.8919 112.434C78.7823 113.543 77.2774 114.167 75.7082 114.167C74.139 114.167 72.634 113.543 71.5245 112.434C70.4149 111.324 69.7915 109.819 69.7915 108.25M114.167 108.25C114.167 109.819 113.543 111.324 112.434 112.434C111.324 113.543 109.819 114.167 108.25 114.167C106.681 114.167 105.176 113.543 104.066 112.434C102.957 111.324 102.333 109.819 102.333 108.25" stroke="white" stroke-width="4" stroke-linecap="round" stroke-linejoin="round"/>
</mask>
<g mask="url(#mask0_151_10)">
<path d="M55 55H126V126H55V55Z" fill="#CB2028"/>
</g>
</svg>
