<svg width="14" height="18" viewBox="0 0 14 18" fill="none" xmlns="http://www.w3.org/2000/svg">
<path d="M7.00016 9.00002C7.4585 9.00002 7.851 8.83669 8.17766 8.51002C8.50433 8.18335 8.66739 7.79113 8.66683 7.33335C8.66683 6.87502 8.5035 6.48252 8.17683 6.15585C7.85016 5.82919 7.45794 5.66613 7.00016 5.66669C6.54183 5.66669 6.14933 5.83002 5.82266 6.15669C5.496 6.48335 5.33294 6.87558 5.3335 7.33335C5.3335 7.79169 5.49683 8.18419 5.8235 8.51085C6.15016 8.83752 6.54238 9.00058 7.00016 9.00002ZM7.00016 17.0209C6.88905 17.0209 6.77794 17 6.66683 16.9584C6.55572 16.9167 6.4585 16.8611 6.37516 16.7917C4.34738 15 2.8335 13.3367 1.8335 11.8017C0.833496 10.2667 0.333496 8.8328 0.333496 7.50002C0.333496 5.41669 1.00377 3.75696 2.34433 2.52085C3.68489 1.28474 5.23683 0.666687 7.00016 0.666687C8.76405 0.666687 10.3163 1.28474 11.6568 2.52085C12.9974 3.75696 13.6674 5.41669 13.6668 7.50002C13.6668 8.83335 13.1668 10.2675 12.1668 11.8025C11.1668 13.3375 9.65294 15.0006 7.62516 16.7917C7.54183 16.8611 7.44461 16.9167 7.3335 16.9584C7.22238 17 7.11127 17.0209 7.00016 17.0209Z" fill="#CB5858"/>
</svg>
