<svg width="340" height="24" viewBox="0 0 340 24" fill="none" xmlns="http://www.w3.org/2000/svg">
<path d="M15.4883 10.6914V19H0.511719V14.8047H2.38672V4.48047H0.511719V0.355469H10.25V4.48047H8.38672V14.8047H11.3867L12.5117 10.6914H15.4883Z" fill="#2A2929"/>
<path d="M21.0547 19.2109C20.2578 19.2109 19.5352 19.0547 18.8867 18.7422C18.2305 18.4375 17.707 17.9961 17.3164 17.418C16.9258 16.8398 16.7305 16.168 16.7305 15.4023C16.7305 14.5742 16.9609 13.8711 17.4219 13.293C17.8828 12.7305 18.4844 12.3086 19.2266 12.0273C19.9766 11.7461 20.7852 11.6055 21.6523 11.6055C22.6758 11.6055 23.6602 11.7578 24.6055 12.0625V11.5352C24.6055 10.9102 24.3398 10.4336 23.8086 10.1055C23.2852 9.77734 22.5742 9.61328 21.6758 9.61328C21.293 9.61328 20.8633 9.66016 20.3867 9.75391C19.9102 9.84766 19.4453 9.97656 18.9922 10.1406C18.5391 10.3047 18.1445 10.4883 17.8086 10.6914L17.4688 10.5508V7.14062C18.4141 6.80469 19.3789 6.56641 20.3633 6.42578C21.3477 6.27734 22.2656 6.20312 23.1172 6.20312C27.8672 6.20312 30.2422 7.53906 30.2422 10.2109V15.4727H31.3438V19H25.3438L24.8164 17.0781C24.4805 17.7344 23.957 18.2539 23.2461 18.6367C22.5352 19.0195 21.8047 19.2109 21.0547 19.2109ZM23.2578 16.2109C23.5156 16.2109 23.7773 16.168 24.043 16.082C24.3164 15.9961 24.5039 15.9062 24.6055 15.8125V13.8438C24.4883 13.8281 24.3008 13.7812 24.043 13.7031C23.7773 13.6328 23.5469 13.5977 23.3516 13.5977C22.9375 13.5977 22.6055 13.7266 22.3555 13.9844C22.1133 14.2422 21.9922 14.5859 21.9922 15.0156C21.9922 15.3359 22.1055 15.6172 22.332 15.8594C22.5664 16.0938 22.875 16.2109 23.2578 16.2109Z" fill="#2A2929"/>
<path d="M38.9492 19.2109C35.9414 19.2109 34.4375 17.6445 34.4375 14.5117V9.88281H32.5625V6.44922H34.4375V3.76562L40.0508 2.51172V6.44922H42.3008V9.88281H40.0508V14.1016C40.0508 14.4531 40.1836 14.7461 40.4492 14.9805C40.7148 15.2148 41.0469 15.332 41.4453 15.332C41.7344 15.332 42.0195 15.3086 42.3008 15.2617V18.5195C41.2695 18.9805 40.1523 19.2109 38.9492 19.2109Z" fill="#2A2929"/>
<path d="M51.2305 19.2109C49.7773 19.2109 48.5156 18.9414 47.4453 18.4023C46.3672 17.8711 45.5391 17.1094 44.9609 16.1172C44.3906 15.125 44.1055 13.9648 44.1055 12.6367C44.1055 11.3242 44.3867 10.1836 44.9492 9.21484C45.5039 8.25391 46.2891 7.51172 47.3047 6.98828C48.3203 6.46484 49.5117 6.20312 50.8789 6.20312C52.1367 6.20312 53.2461 6.44922 54.207 6.94141C55.168 7.44141 55.9102 8.14844 56.4336 9.0625C56.9648 9.97656 57.2305 11.043 57.2305 12.2617C57.2305 12.6836 57.168 13.082 57.043 13.457H49.7422C49.7422 14.1914 50.0195 14.7812 50.5742 15.2266C51.1289 15.6641 51.7969 15.8828 52.5781 15.8828C53.1719 15.8828 53.8242 15.7812 54.5352 15.5781C55.2461 15.3672 55.9609 15.043 56.6797 14.6055L56.8789 14.6758V17.8281C56.0742 18.2891 55.2461 18.6367 54.3945 18.8711C53.5508 19.0977 52.4961 19.2109 51.2305 19.2109ZM49.7422 11.0547V11.3945H52.7422V11.1484C52.7422 10.5938 52.6133 10.1172 52.3555 9.71875C52.1055 9.3125 51.7305 9.10938 51.2305 9.10938C50.8164 9.10938 50.4648 9.31641 50.1758 9.73047C49.8867 10.1367 49.7422 10.5781 49.7422 11.0547Z" fill="#2A2929"/>
<path d="M65.8789 19.2109C64.2773 19.2109 62.8594 18.7891 61.625 17.9453L61.2383 19H59.0586V14.3711H61.6719C61.7734 14.9648 62.0508 15.4961 62.5039 15.9648C62.957 16.4336 63.4805 16.668 64.0742 16.668C64.3008 16.668 64.4961 16.6055 64.6602 16.4805C64.832 16.3555 64.918 16.1484 64.918 15.8594C64.918 15.5703 64.7539 15.3086 64.4258 15.0742C64.0898 14.832 63.5898 14.5547 62.9258 14.2422C62.1211 13.8438 61.4648 13.4805 60.957 13.1523C60.4414 12.8242 59.9961 12.3945 59.6211 11.8633C59.2461 11.3242 59.0586 10.6797 59.0586 9.92969C59.0586 9.15625 59.3125 8.48438 59.8203 7.91406C60.3281 7.35156 60.9961 6.92578 61.8242 6.63672C62.6523 6.34766 63.5547 6.20312 64.5312 6.20312C65.8047 6.20312 66.9883 6.53906 68.082 7.21094L68.375 6.44922H70.3203V10.1875H68.0586C67.8633 9.67969 67.582 9.28125 67.2148 8.99219C66.8477 8.70312 66.418 8.55859 65.9258 8.55859C65.3477 8.55859 65.0586 8.74219 65.0586 9.10938C65.0664 9.35938 65.2188 9.57422 65.5156 9.75391C65.8125 9.92578 66.293 10.1602 66.957 10.457C67.3711 10.6289 67.75 10.8008 68.0938 10.9727C68.4375 11.1445 68.7461 11.3086 69.0195 11.4648C69.5664 11.7852 70.043 12.2383 70.4492 12.8242C70.8555 13.4023 71.0586 14.125 71.0586 14.9922C71.0586 15.9141 70.8203 16.6875 70.3438 17.3125C69.8672 17.9453 69.2344 18.4219 68.4453 18.7422C67.6562 19.0547 66.8008 19.2109 65.8789 19.2109Z" fill="#2A2929"/>
<path d="M78.9805 19.2109C75.9727 19.2109 74.4688 17.6445 74.4688 14.5117V9.88281H72.5938V6.44922H74.4688V3.76562L80.082 2.51172V6.44922H82.332V9.88281H80.082V14.1016C80.082 14.4531 80.2148 14.7461 80.4805 14.9805C80.7461 15.2148 81.0781 15.332 81.4766 15.332C81.7656 15.332 82.0508 15.3086 82.332 15.2617V18.5195C81.3008 18.9805 80.1836 19.2109 78.9805 19.2109Z" fill="#2A2929"/>
<path d="M98.0469 14.8047V19H90.582V14.8047H92.4805V4.45703H90.6289V0.332031H99.2422L105.078 11.418V4.48047H103.203V0.355469H110.668V4.48047H108.816V19H101.715L96.1719 8.69922V14.8047H98.0469Z" fill="#2A2929"/>
<path d="M119.199 19.2109C117.746 19.2109 116.484 18.9414 115.414 18.4023C114.336 17.8711 113.508 17.1094 112.93 16.1172C112.359 15.125 112.074 13.9648 112.074 12.6367C112.074 11.3242 112.355 10.1836 112.918 9.21484C113.473 8.25391 114.258 7.51172 115.273 6.98828C116.289 6.46484 117.48 6.20312 118.848 6.20312C120.105 6.20312 121.215 6.44922 122.176 6.94141C123.137 7.44141 123.879 8.14844 124.402 9.0625C124.934 9.97656 125.199 11.043 125.199 12.2617C125.199 12.6836 125.137 13.082 125.012 13.457H117.711C117.711 14.1914 117.988 14.7812 118.543 15.2266C119.098 15.6641 119.766 15.8828 120.547 15.8828C121.141 15.8828 121.793 15.7812 122.504 15.5781C123.215 15.3672 123.93 15.043 124.648 14.6055L124.848 14.6758V17.8281C124.043 18.2891 123.215 18.6367 122.363 18.8711C121.52 19.0977 120.465 19.2109 119.199 19.2109ZM117.711 11.0547V11.3945H120.711V11.1484C120.711 10.5938 120.582 10.1172 120.324 9.71875C120.074 9.3125 119.699 9.10938 119.199 9.10938C118.785 9.10938 118.434 9.31641 118.145 9.73047C117.855 10.1367 117.711 10.5781 117.711 11.0547Z" fill="#2A2929"/>
<path d="M138.359 13.9609L136.578 19H131.375L128.586 10.0703H127.027V6.44922H135.336V10.0703H134.223L135.312 14.418L137.785 6.44922H140.902L143.445 14.5586L144.617 10.0703H143.223V6.44922H149.68V10.0703H148.098L145.438 19H139.871L138.359 13.9609Z" fill="#2A2929"/>
<path d="M157.988 19.2109C156.387 19.2109 154.969 18.7891 153.734 17.9453L153.348 19H151.168V14.3711H153.781C153.883 14.9648 154.16 15.4961 154.613 15.9648C155.066 16.4336 155.59 16.668 156.184 16.668C156.41 16.668 156.605 16.6055 156.77 16.4805C156.941 16.3555 157.027 16.1484 157.027 15.8594C157.027 15.5703 156.863 15.3086 156.535 15.0742C156.199 14.832 155.699 14.5547 155.035 14.2422C154.23 13.8438 153.574 13.4805 153.066 13.1523C152.551 12.8242 152.105 12.3945 151.73 11.8633C151.355 11.3242 151.168 10.6797 151.168 9.92969C151.168 9.15625 151.422 8.48438 151.93 7.91406C152.438 7.35156 153.105 6.92578 153.934 6.63672C154.762 6.34766 155.664 6.20312 156.641 6.20312C157.914 6.20312 159.098 6.53906 160.191 7.21094L160.484 6.44922H162.43V10.1875H160.168C159.973 9.67969 159.691 9.28125 159.324 8.99219C158.957 8.70312 158.527 8.55859 158.035 8.55859C157.457 8.55859 157.168 8.74219 157.168 9.10938C157.176 9.35938 157.328 9.57422 157.625 9.75391C157.922 9.92578 158.402 10.1602 159.066 10.457C159.48 10.6289 159.859 10.8008 160.203 10.9727C160.547 11.1445 160.855 11.3086 161.129 11.4648C161.676 11.7852 162.152 12.2383 162.559 12.8242C162.965 13.4023 163.168 14.125 163.168 14.9922C163.168 15.9141 162.93 16.6875 162.453 17.3125C161.977 17.9453 161.344 18.4219 160.555 18.7422C159.766 19.0547 158.91 19.2109 157.988 19.2109Z" fill="#2A2929"/>
<path d="M175.789 19.2109C174.992 19.2109 174.27 19.0547 173.621 18.7422C172.965 18.4375 172.441 17.9961 172.051 17.418C171.66 16.8398 171.465 16.168 171.465 15.4023C171.465 14.5742 171.695 13.8711 172.156 13.293C172.617 12.7305 173.219 12.3086 173.961 12.0273C174.711 11.7461 175.52 11.6055 176.387 11.6055C177.41 11.6055 178.395 11.7578 179.34 12.0625V11.5352C179.34 10.9102 179.074 10.4336 178.543 10.1055C178.02 9.77734 177.309 9.61328 176.41 9.61328C176.027 9.61328 175.598 9.66016 175.121 9.75391C174.645 9.84766 174.18 9.97656 173.727 10.1406C173.273 10.3047 172.879 10.4883 172.543 10.6914L172.203 10.5508V7.14062C173.148 6.80469 174.113 6.56641 175.098 6.42578C176.082 6.27734 177 6.20312 177.852 6.20312C182.602 6.20312 184.977 7.53906 184.977 10.2109V15.4727H186.078V19H180.078L179.551 17.0781C179.215 17.7344 178.691 18.2539 177.98 18.6367C177.27 19.0195 176.539 19.2109 175.789 19.2109ZM177.992 16.2109C178.25 16.2109 178.512 16.168 178.777 16.082C179.051 15.9961 179.238 15.9062 179.34 15.8125V13.8438C179.223 13.8281 179.035 13.7812 178.777 13.7031C178.512 13.6328 178.281 13.5977 178.086 13.5977C177.672 13.5977 177.34 13.7266 177.09 13.9844C176.848 14.2422 176.727 14.5859 176.727 15.0156C176.727 15.3359 176.84 15.6172 177.066 15.8594C177.301 16.0938 177.609 16.2109 177.992 16.2109Z" fill="#2A2929"/>
<path d="M203.48 11.0312V15.6133H205.109V19H197.855V11.0078C197.855 10.6719 197.746 10.375 197.527 10.1172C197.316 9.85938 197.059 9.73047 196.754 9.73047C196.184 9.73047 195.824 10.0156 195.676 10.5859C195.52 11.1719 195.441 11.9922 195.441 13.0469V15.6133H195.465V19H188.141V15.6133H189.84V10.0703H188.141V6.90625L195.441 6.20312V7.96094C195.98 7.32031 196.594 6.86719 197.281 6.60156C197.969 6.33594 198.746 6.20312 199.613 6.20312C202.191 6.20312 203.48 7.8125 203.48 11.0312Z" fill="#2A2929"/>
<path d="M211.719 19.2109C210.586 19.2109 209.605 18.9102 208.777 18.3086C207.957 17.707 207.332 16.9023 206.902 15.8945C206.48 14.8789 206.27 13.7617 206.27 12.543C206.27 11.4414 206.488 10.3984 206.926 9.41406C207.363 8.44531 207.98 7.66797 208.777 7.08203C209.582 6.49609 210.531 6.20312 211.625 6.20312C212.422 6.20312 213.105 6.33203 213.676 6.58984C214.246 6.84766 214.777 7.23047 215.27 7.73828V4.66797H213.395V1.48047L220.906 0.707031V15.4727H222.395V19H215.176V17.4883C214.793 18.0039 214.305 18.418 213.711 18.7305C213.117 19.0352 212.453 19.1953 211.719 19.2109ZM213.594 15.7891C213.961 15.7891 214.293 15.7031 214.59 15.5312C214.887 15.3516 215.113 15.1406 215.27 14.8984V10.457C215.09 10.2461 214.848 10.0586 214.543 9.89453C214.246 9.72266 213.93 9.63672 213.594 9.63672C212.984 9.63672 212.488 9.88672 212.105 10.3867C211.723 10.8789 211.531 11.5977 211.531 12.543C211.531 13.5039 211.707 14.2852 212.059 14.8867C212.41 15.4883 212.922 15.7891 213.594 15.7891Z" fill="#2A2929"/>
<path d="M239.621 19.3398C236.84 19.3398 234.836 18.6133 233.609 17.1602C232.391 15.6992 231.781 13.5586 231.781 10.7383V4.48047H229.883V0.355469H240.055V4.48047H238.332V12.332C238.332 13.0977 238.52 13.7266 238.895 14.2188C239.27 14.7031 239.859 14.9453 240.664 14.9453C241.336 14.9453 241.867 14.7461 242.258 14.3477C242.648 13.9414 242.844 13.3945 242.844 12.707V4.48047H240.922V0.355469H248.574V4.48047H246.781V12.543C246.781 14.0352 246.48 15.2891 245.879 16.3047C245.285 17.3125 244.453 18.0703 243.383 18.5781C242.312 19.0859 241.059 19.3398 239.621 19.3398Z" fill="#2A2929"/>
<path d="M258.617 23.6523H249.98V20.1016H251.492V10.0703H249.98V6.92969L257.105 6.20312V8.19531C257.504 7.64062 258.02 7.17188 258.652 6.78906C259.285 6.39844 260.027 6.20312 260.879 6.20312C261.996 6.20312 262.949 6.49219 263.738 7.07031C264.527 7.64844 265.117 8.42578 265.508 9.40234C265.906 10.3789 266.105 11.4648 266.105 12.6602C266.105 13.8477 265.91 14.9453 265.52 15.9531C265.129 16.9453 264.535 17.7383 263.738 18.332C262.949 18.918 261.988 19.2109 260.855 19.2109C260.066 19.2109 259.348 19.0586 258.699 18.7539C258.059 18.4414 257.527 18.0586 257.105 17.6055V20.125H258.617V23.6523ZM258.793 15.7891C259.496 15.7891 260.016 15.5078 260.352 14.9453C260.688 14.3828 260.855 13.6445 260.855 12.7305C260.855 11.793 260.672 11.043 260.305 10.4805C259.938 9.91797 259.457 9.63672 258.863 9.63672C258.465 9.63672 258.105 9.73828 257.785 9.94141C257.465 10.1367 257.238 10.3945 257.105 10.7148V14.7812C257.457 15.4531 258.02 15.7891 258.793 15.7891Z" fill="#2A2929"/>
<path d="M273.242 19.2109C272.109 19.2109 271.129 18.9102 270.301 18.3086C269.48 17.707 268.855 16.9023 268.426 15.8945C268.004 14.8789 267.793 13.7617 267.793 12.543C267.793 11.4414 268.012 10.3984 268.449 9.41406C268.887 8.44531 269.504 7.66797 270.301 7.08203C271.105 6.49609 272.055 6.20312 273.148 6.20312C273.945 6.20312 274.629 6.33203 275.199 6.58984C275.77 6.84766 276.301 7.23047 276.793 7.73828V4.66797H274.918V1.48047L282.43 0.707031V15.4727H283.918V19H276.699V17.4883C276.316 18.0039 275.828 18.418 275.234 18.7305C274.641 19.0352 273.977 19.1953 273.242 19.2109ZM275.117 15.7891C275.484 15.7891 275.816 15.7031 276.113 15.5312C276.41 15.3516 276.637 15.1406 276.793 14.8984V10.457C276.613 10.2461 276.371 10.0586 276.066 9.89453C275.77 9.72266 275.453 9.63672 275.117 9.63672C274.508 9.63672 274.012 9.88672 273.629 10.3867C273.246 10.8789 273.055 11.5977 273.055 12.543C273.055 13.5039 273.23 14.2852 273.582 14.8867C273.934 15.4883 274.445 15.7891 275.117 15.7891Z" fill="#2A2929"/>
<path d="M289.93 19.2109C289.133 19.2109 288.41 19.0547 287.762 18.7422C287.105 18.4375 286.582 17.9961 286.191 17.418C285.801 16.8398 285.605 16.168 285.605 15.4023C285.605 14.5742 285.836 13.8711 286.297 13.293C286.758 12.7305 287.359 12.3086 288.102 12.0273C288.852 11.7461 289.66 11.6055 290.527 11.6055C291.551 11.6055 292.535 11.7578 293.48 12.0625V11.5352C293.48 10.9102 293.215 10.4336 292.684 10.1055C292.16 9.77734 291.449 9.61328 290.551 9.61328C290.168 9.61328 289.738 9.66016 289.262 9.75391C288.785 9.84766 288.32 9.97656 287.867 10.1406C287.414 10.3047 287.02 10.4883 286.684 10.6914L286.344 10.5508V7.14062C287.289 6.80469 288.254 6.56641 289.238 6.42578C290.223 6.27734 291.141 6.20312 291.992 6.20312C296.742 6.20312 299.117 7.53906 299.117 10.2109V15.4727H300.219V19H294.219L293.691 17.0781C293.355 17.7344 292.832 18.2539 292.121 18.6367C291.41 19.0195 290.68 19.2109 289.93 19.2109ZM292.133 16.2109C292.391 16.2109 292.652 16.168 292.918 16.082C293.191 15.9961 293.379 15.9062 293.48 15.8125V13.8438C293.363 13.8281 293.176 13.7812 292.918 13.7031C292.652 13.6328 292.422 13.5977 292.227 13.5977C291.812 13.5977 291.48 13.7266 291.23 13.9844C290.988 14.2422 290.867 14.5859 290.867 15.0156C290.867 15.3359 290.98 15.6172 291.207 15.8594C291.441 16.0938 291.75 16.2109 292.133 16.2109Z" fill="#2A2929"/>
<path d="M307.824 19.2109C304.816 19.2109 303.312 17.6445 303.312 14.5117V9.88281H301.438V6.44922H303.312V3.76562L308.926 2.51172V6.44922H311.176V9.88281H308.926V14.1016C308.926 14.4531 309.059 14.7461 309.324 14.9805C309.59 15.2148 309.922 15.332 310.32 15.332C310.609 15.332 310.895 15.3086 311.176 15.2617V18.5195C310.145 18.9805 309.027 19.2109 307.824 19.2109Z" fill="#2A2929"/>
<path d="M320.105 19.2109C318.652 19.2109 317.391 18.9414 316.32 18.4023C315.242 17.8711 314.414 17.1094 313.836 16.1172C313.266 15.125 312.98 13.9648 312.98 12.6367C312.98 11.3242 313.262 10.1836 313.824 9.21484C314.379 8.25391 315.164 7.51172 316.18 6.98828C317.195 6.46484 318.387 6.20312 319.754 6.20312C321.012 6.20312 322.121 6.44922 323.082 6.94141C324.043 7.44141 324.785 8.14844 325.309 9.0625C325.84 9.97656 326.105 11.043 326.105 12.2617C326.105 12.6836 326.043 13.082 325.918 13.457H318.617C318.617 14.1914 318.895 14.7812 319.449 15.2266C320.004 15.6641 320.672 15.8828 321.453 15.8828C322.047 15.8828 322.699 15.7812 323.41 15.5781C324.121 15.3672 324.836 15.043 325.555 14.6055L325.754 14.6758V17.8281C324.949 18.2891 324.121 18.6367 323.27 18.8711C322.426 19.0977 321.371 19.2109 320.105 19.2109ZM318.617 11.0547V11.3945H321.617V11.1484C321.617 10.5938 321.488 10.1172 321.23 9.71875C320.98 9.3125 320.605 9.10938 320.105 9.10938C319.691 9.10938 319.34 9.31641 319.051 9.73047C318.762 10.1367 318.617 10.5781 318.617 11.0547Z" fill="#2A2929"/>
<path d="M334.754 19.2109C333.152 19.2109 331.734 18.7891 330.5 17.9453L330.113 19H327.934V14.3711H330.547C330.648 14.9648 330.926 15.4961 331.379 15.9648C331.832 16.4336 332.355 16.668 332.949 16.668C333.176 16.668 333.371 16.6055 333.535 16.4805C333.707 16.3555 333.793 16.1484 333.793 15.8594C333.793 15.5703 333.629 15.3086 333.301 15.0742C332.965 14.832 332.465 14.5547 331.801 14.2422C330.996 13.8438 330.34 13.4805 329.832 13.1523C329.316 12.8242 328.871 12.3945 328.496 11.8633C328.121 11.3242 327.934 10.6797 327.934 9.92969C327.934 9.15625 328.188 8.48438 328.695 7.91406C329.203 7.35156 329.871 6.92578 330.699 6.63672C331.527 6.34766 332.43 6.20312 333.406 6.20312C334.68 6.20312 335.863 6.53906 336.957 7.21094L337.25 6.44922H339.195V10.1875H336.934C336.738 9.67969 336.457 9.28125 336.09 8.99219C335.723 8.70312 335.293 8.55859 334.801 8.55859C334.223 8.55859 333.934 8.74219 333.934 9.10938C333.941 9.35938 334.094 9.57422 334.391 9.75391C334.688 9.92578 335.168 10.1602 335.832 10.457C336.246 10.6289 336.625 10.8008 336.969 10.9727C337.312 11.1445 337.621 11.3086 337.895 11.4648C338.441 11.7852 338.918 12.2383 339.324 12.8242C339.73 13.4023 339.934 14.125 339.934 14.9922C339.934 15.9141 339.695 16.6875 339.219 17.3125C338.742 17.9453 338.109 18.4219 337.32 18.7422C336.531 19.0547 335.676 19.2109 334.754 19.2109Z" fill="#2A2929"/>
</svg>
