<svg width="37" height="37" viewBox="0 0 37 37" fill="none" xmlns="http://www.w3.org/2000/svg">
<path d="M18.5 0C8.28371 0 0 8.28371 0 18.5C0 28.7163 8.28371 37 18.5 37C28.7163 37 37 28.7163 37 18.5C37 8.28371 28.7163 0 18.5 0ZM27.3907 13.9452C27.4031 14.1393 27.4031 14.3416 27.4031 14.5398C27.4031 20.6019 22.7864 27.5848 14.3499 27.5848C11.7483 27.5848 9.33672 26.8291 7.30502 25.5283C7.67667 25.5696 8.03181 25.5862 8.41172 25.5862C10.559 25.5862 12.5329 24.8594 14.1062 23.6288C12.0911 23.5875 10.398 22.2661 9.81987 20.4491C10.526 20.5523 11.1619 20.5523 11.8887 20.3665C10.8511 20.1557 9.91846 19.5922 9.24924 18.7716C8.58002 17.9511 8.21551 16.9242 8.21763 15.8654V15.8076C8.82466 16.1503 9.53906 16.3609 10.2865 16.3898C9.65817 15.9711 9.14287 15.4038 8.78631 14.7382C8.42974 14.0726 8.24292 13.3293 8.24241 12.5742C8.24241 11.7194 8.4654 10.939 8.86596 10.2617C10.0177 11.6795 11.4548 12.8391 13.0841 13.6651C14.7133 14.4911 16.4981 14.965 18.3224 15.056C17.6741 11.9383 20.0031 9.41518 22.8029 9.41518C24.1243 9.41518 25.3136 9.96853 26.1519 10.8605C27.1884 10.6664 28.1795 10.2782 29.0632 9.75792C28.7204 10.8192 28.0019 11.7153 27.048 12.281C27.973 12.1819 28.865 11.9259 29.6908 11.5666C29.0673 12.4834 28.2868 13.2969 27.3907 13.9452Z" fill="#CB5858"/>
</svg>
