<svg width="180" height="180" viewBox="0 0 180 180" fill="none" xmlns="http://www.w3.org/2000/svg">
<circle cx="90" cy="90" r="90" fill="#CB5858"/>
<circle cx="89.5" cy="90.5" r="72.5" fill="white"/>
<path d="M64 86C60.7 86 58 88.7 58 92V113C58 116.3 60.7 119 64 119C67.3 119 70 116.3 70 113V92C70 88.7 67.3 86 64 86ZM85 68.9C85 63.35 89.35 59 94.9 59C98.02 59 101.05 60.47 103 62.75C104.95 60.47 107.98 59 111.1 59C116.65 59 121 63.35 121 68.9C121 75.2 113.5 82.43 105.01 90.17C104.457 90.676 103.735 90.9565 102.985 90.9565C102.235 90.9565 101.513 90.676 100.96 90.17C92.5 82.43 85 75.2 85 68.9ZM114.97 104H94.48C94.142 103.999 93.8069 103.938 93.49 103.82L89.08 102.29C88.896 102.226 88.7265 102.126 88.5814 101.996C88.4363 101.867 88.3184 101.709 88.2347 101.533C88.151 101.357 88.103 101.167 88.0936 100.972C88.0842 100.778 88.1136 100.583 88.18 100.4C88.45 99.62 89.32 99.2 90.1 99.5L93.46 100.79C93.79 100.91 94.18 101 94.54 101H102.43C104.38 101 105.97 99.41 105.97 97.46C105.97 95.99 105.04 94.67 103.66 94.13L82.9 86.39C82.24 86.12 81.52 86 80.8 86H76V113.06L95.11 118.49C96.34 118.85 97.66 118.79 98.86 118.34L121 110C121 106.67 118.3 104 114.97 104Z" fill="#CB2028"/>
</svg>
