<svg width="30" height="30" viewBox="0 0 30 30" fill="none" xmlns="http://www.w3.org/2000/svg">
<path d="M15.0002 29.1667C13.0641 29.1667 11.2342 28.7946 9.51058 28.0504C7.78697 27.3062 6.28153 26.2909 4.99425 25.0045C3.70791 23.7182 2.69264 22.2132 1.94841 20.4896C1.20419 18.766 0.832553 16.9362 0.833498 15C0.833498 13.0403 1.20561 11.2043 1.94983 9.49204C2.69405 7.77976 3.70933 6.28093 4.99567 4.99554C6.282 3.70826 7.7865 2.69299 9.50916 1.94971C11.2318 1.20643 13.0622 0.834318 15.0002 0.833374C16.9599 0.833374 18.7959 1.20549 20.5082 1.94971C22.2204 2.69393 23.7193 3.70921 25.0047 4.99554C26.2919 6.28187 27.3072 7.78118 28.0505 9.49346C28.7938 11.2057 29.1659 13.0413 29.1668 15C29.1668 16.9362 28.7947 18.766 28.0505 20.4896C27.3063 22.2132 26.291 23.7187 25.0047 25.006C23.7183 26.2923 22.219 27.3076 20.5067 28.0518C18.7945 28.796 16.9589 29.1677 15.0002 29.1667ZM15.0002 26.2625C15.6141 25.4125 16.1453 24.5271 16.5939 23.6063C17.0425 22.6855 17.4085 21.7056 17.6918 20.6667H12.3085C12.5918 21.7056 12.9578 22.6855 13.4064 23.6063C13.855 24.5271 14.3863 25.4125 15.0002 26.2625ZM11.3168 25.6959C10.8918 24.9167 10.5197 24.1078 10.2005 23.2691C9.88128 22.4305 9.61589 21.563 9.40433 20.6667H5.22516C5.90989 21.8473 6.76603 22.8743 7.79358 23.748C8.82114 24.6216 9.99555 25.2709 11.3168 25.6959ZM18.6835 25.6959C20.0057 25.2709 21.1806 24.6216 22.2082 23.748C23.2357 22.8743 24.0914 21.8473 24.7752 20.6667H20.596C20.3835 21.5639 20.1181 22.4319 19.7998 23.2705C19.4816 24.1092 19.1094 24.9177 18.6835 25.6959ZM4.021 17.8334H8.83767C8.76683 17.3612 8.71347 16.8946 8.67758 16.4337C8.64169 15.9728 8.62422 15.4949 8.62517 15C8.62517 14.5042 8.64311 14.0263 8.679 13.5664C8.71489 13.1064 8.76778 12.6399 8.83767 12.1667H4.021C3.90294 12.6389 3.81416 13.1055 3.75466 13.5664C3.69516 14.0273 3.66589 14.5052 3.66683 15C3.66683 15.4959 3.69658 15.9738 3.75608 16.4337C3.81558 16.8937 3.90389 17.3602 4.021 17.8334ZM11.671 17.8334H18.3293C18.4002 17.3612 18.4535 16.8946 18.4894 16.4337C18.5253 15.9728 18.5428 15.4949 18.5418 15C18.5418 14.5042 18.5239 14.0263 18.488 13.5664C18.4521 13.1064 18.3992 12.6399 18.3293 12.1667H11.671C11.6002 12.6389 11.5468 13.1055 11.5109 13.5664C11.475 14.0273 11.4576 14.5052 11.4585 15C11.4585 15.4959 11.4764 15.9738 11.5123 16.4337C11.5482 16.8937 11.6011 17.3602 11.671 17.8334ZM21.1627 17.8334H25.9793C26.0974 17.3612 26.1862 16.8946 26.2457 16.4337C26.3052 15.9728 26.3344 15.4949 26.3335 15C26.3335 14.5042 26.3038 14.0263 26.2443 13.5664C26.1848 13.1064 26.0964 12.6399 25.9793 12.1667H21.1627C21.2335 12.6389 21.2869 13.1055 21.3227 13.5664C21.3586 14.0273 21.3761 14.5052 21.3752 15C21.3752 15.4959 21.3572 15.9738 21.3213 16.4337C21.2854 16.8937 21.2326 17.3602 21.1627 17.8334ZM20.596 9.33337H24.7752C24.0904 8.15282 23.2348 7.12573 22.2082 6.25212C21.1816 5.37851 20.0067 4.72921 18.6835 4.30421C19.1085 5.08337 19.4806 5.89229 19.7998 6.73096C20.1191 7.56962 20.3844 8.4371 20.596 9.33337ZM12.3085 9.33337H17.6918C17.4085 8.29449 17.0425 7.31462 16.5939 6.39379C16.1453 5.47296 15.6141 4.58754 15.0002 3.73754C14.3863 4.58754 13.855 5.47296 13.4064 6.39379C12.9578 7.31462 12.5918 8.29449 12.3085 9.33337ZM5.22516 9.33337H9.40433C9.61683 8.43615 9.88269 7.56821 10.2019 6.72954C10.5211 5.89087 10.8928 5.08243 11.3168 4.30421C9.99461 4.72921 8.81972 5.37851 7.79217 6.25212C6.76461 7.12573 5.90894 8.15282 5.22516 9.33337Z" fill="#CB5858"/>
</svg>
